<?xml version="1.0" encoding="UTF-8"?>
<!DOCTYPE svg PUBLIC "-//W3C//DTD SVG 1.1//EN" "http://www.w3.org/Graphics/SVG/1.1/DTD/svg11.dtd">
<svg xmlns="http://www.w3.org/2000/svg" version="1.1" width="512px" height="512px" style="shape-rendering:geometricPrecision; text-rendering:geometricPrecision; image-rendering:optimizeQuality; fill-rule:evenodd; clip-rule:evenodd" xmlns:xlink="http://www.w3.org/1999/xlink">
<g><path style="opacity:0.92" fill="#000000" d="M 511.5,193.5 C 511.5,201.833 511.5,210.167 511.5,218.5C 505.776,241.029 491.109,252.862 467.5,254C 433.5,254.667 399.5,254.667 365.5,254C 341.065,252.891 326.565,240.391 322,216.5C 320.523,195.886 324.189,176.219 333,157.5C 341.693,137.494 353.527,119.66 368.5,104C 358.726,95.3064 356.892,85.1397 363,73.5C 366.025,68.9623 370.191,66.2956 375.5,65.5C 371.841,50.1845 368.174,34.8511 364.5,19.5C 364.5,14.8333 366.833,12.5 371.5,12.5C 375.114,12.8044 378.448,13.9711 381.5,16C 385.084,19.4162 389.084,22.2495 393.5,24.5C 399.533,20.1509 405.867,16.3176 412.5,13C 415.5,12.3333 418.5,12.3333 421.5,13C 427.942,16.453 434.109,20.2863 440,24.5C 445.236,21.1296 450.403,17.6296 455.5,14C 459.529,12.0873 463.529,12.0873 467.5,14C 468.573,15.3129 469.24,16.8129 469.5,18.5C 465.338,34.1494 461.338,49.8161 457.5,65.5C 471.218,69.9258 476.385,79.2591 473,93.5C 471.223,97.9038 468.39,101.404 464.5,104C 488.738,129.308 504.405,159.142 511.5,193.5 Z M 451.5,33.5 C 449.378,43.8204 446.712,53.9871 443.5,64C 425.491,64.833 407.491,64.6663 389.5,63.5C 386.175,53.5444 383.841,43.5444 382.5,33.5C 387.074,36.6386 392.074,37.8053 397.5,37C 403.968,33.3601 410.301,29.5267 416.5,25.5C 422.776,29.9274 429.443,33.7607 436.5,37C 441.984,37.7807 446.984,36.614 451.5,33.5 Z M 378.5,77.5 C 404.169,77.3334 429.835,77.5 455.5,78C 463.5,83.3333 463.5,88.6667 455.5,94C 429.833,94.6667 404.167,94.6667 378.5,94C 372.458,91.1632 370.958,86.6632 374,80.5C 375.409,79.2189 376.909,78.2189 378.5,77.5 Z M 383.5,107.5 C 405.503,107.333 427.503,107.5 449.5,108C 472.879,130.567 488.712,157.733 497,189.5C 498.474,198.454 498.807,207.454 498,216.5C 494.163,232.357 483.997,240.524 467.5,241C 433.5,241.667 399.5,241.667 365.5,241C 344.714,238.945 334.381,227.445 334.5,206.5C 334.887,194.066 337.387,182.066 342,170.5C 351.347,146.454 365.18,125.454 383.5,107.5 Z M 409.5,147.5 C 410.654,153.987 410.821,160.654 410,167.5C 397.563,161.006 397.396,154.34 409.5,147.5 Z M 423.5,182.5 C 435.297,188.374 435.464,194.707 424,201.5C 423.5,195.175 423.334,188.842 423.5,182.5 Z"/></g>
<g><path style="opacity:0.913" fill="#000000" d="M 243.5,38.5 C 246.467,38.9886 249.133,40.1552 251.5,42C 273.658,57.9128 295.992,73.5795 318.5,89C 322.662,92.4454 323.162,96.2788 320,100.5C 303.535,124.596 286.702,148.43 269.5,172C 265.726,173.183 262.559,172.349 260,169.5C 258.333,161.167 256.667,152.833 255,144.5C 207.995,157.079 168.829,181.913 137.5,219C 134.878,220.805 132.211,220.805 129.5,219C 127.886,214.695 126.886,210.195 126.5,205.5C 127.721,175.655 138.221,149.655 158,127.5C 182.078,102.438 210.245,83.2712 242.5,70C 240.675,61.8914 239.009,53.7247 237.5,45.5C 238.148,41.8618 240.148,39.5285 243.5,38.5 Z M 253.5,60.5 C 271.268,72.4206 288.935,84.5873 306.5,97C 294.456,114.254 282.29,131.421 270,148.5C 268.56,143.524 267.227,138.524 266,133.5C 264.745,131.406 262.912,130.406 260.5,130.5C 213.914,140.038 174.081,161.704 141,195.5C 142.053,180.341 146.72,166.341 155,153.5C 174.305,126.526 198.805,105.693 228.5,91C 236.833,87.1667 245.167,83.3333 253.5,79.5C 254.993,77.6364 255.66,75.4697 255.5,73C 255.101,68.7706 254.434,64.604 253.5,60.5 Z"/></g>
<g><path style="opacity:0.924" fill="#000000" d="M -0.5,415.5 C -0.5,413.167 -0.5,410.833 -0.5,408.5C 3.73316,405.91 8.39983,404.91 13.5,405.5C 13.5,380.167 13.5,354.833 13.5,329.5C 8.5329,330.038 3.86624,329.371 -0.5,327.5C -0.5,324.833 -0.5,322.167 -0.5,319.5C 3.86624,317.629 8.5329,316.962 13.5,317.5C 13.5,292.167 13.5,266.833 13.5,241.5C 8.43214,241.957 3.76547,240.957 -0.5,238.5C -0.5,235.833 -0.5,233.167 -0.5,230.5C 3.86624,228.629 8.5329,227.962 13.5,228.5C 13.5,203.167 13.5,177.833 13.5,152.5C 8.39983,153.09 3.73316,152.09 -0.5,149.5C -0.5,147.167 -0.5,144.833 -0.5,142.5C 0.309426,141.531 1.30943,140.698 2.5,140C 6.15159,139.501 9.81826,139.335 13.5,139.5C 13.3334,119.831 13.5,100.164 14,80.5C 14.4272,76.5716 16.5938,74.5716 20.5,74.5C 22.9116,74.4062 24.745,75.4062 26,77.5C 26.5,98.164 26.6666,118.831 26.5,139.5C 30.5138,139.334 34.5138,139.501 38.5,140C 40.8146,141.296 41.8146,143.296 41.5,146C 41.6464,148.034 40.9797,149.701 39.5,151C 35.2695,152.29 30.9362,152.79 26.5,152.5C 26.5,177.833 26.5,203.167 26.5,228.5C 30.5138,228.334 34.5138,228.501 38.5,229C 42.0958,232.272 42.4292,235.938 39.5,240C 35.2486,241.195 30.9152,241.695 26.5,241.5C 26.5,266.833 26.5,292.167 26.5,317.5C 30.8461,317.334 35.1794,317.501 39.5,318C 42.4292,322.062 42.0958,325.728 38.5,329C 34.5138,329.499 30.5138,329.666 26.5,329.5C 26.5,354.833 26.5,380.167 26.5,405.5C 30.9362,405.21 35.2695,405.71 39.5,407C 42.4292,411.062 42.0958,414.728 38.5,418C 34.5138,418.499 30.5138,418.666 26.5,418.5C 26.5,435.833 26.5,453.167 26.5,470.5C 45.8333,470.5 65.1667,470.5 84.5,470.5C 84.3347,466.818 84.5014,463.152 85,459.5C 89.0474,454.191 93.0474,454.191 97,459.5C 97.4986,463.152 97.6653,466.818 97.5,470.5C 122.833,470.5 148.167,470.5 173.5,470.5C 173.335,466.818 173.501,463.152 174,459.5C 178.047,454.191 182.047,454.191 186,459.5C 186.499,463.152 186.665,466.818 186.5,470.5C 211.833,470.5 237.167,470.5 262.5,470.5C 262.335,466.818 262.501,463.152 263,459.5C 267,454.167 271,454.167 275,459.5C 275.499,463.152 275.665,466.818 275.5,470.5C 300.833,470.5 326.167,470.5 351.5,470.5C 351.335,466.818 351.501,463.152 352,459.5C 355.953,454.191 359.953,454.191 364,459.5C 364.499,463.152 364.665,466.818 364.5,470.5C 386.503,470.333 408.503,470.5 430.5,471C 436.342,474.641 436.676,478.641 431.5,483C 409.169,483.5 386.836,483.667 364.5,483.5C 364.665,487.182 364.499,490.848 364,494.5C 361.839,498.124 358.672,499.291 354.5,498C 353.299,497.097 352.465,495.931 352,494.5C 351.501,490.848 351.335,487.182 351.5,483.5C 326.167,483.5 300.833,483.5 275.5,483.5C 275.665,487.182 275.499,490.848 275,494.5C 272.839,498.124 269.672,499.291 265.5,498C 264.299,497.097 263.465,495.931 263,494.5C 262.501,490.848 262.335,487.182 262.5,483.5C 237.167,483.5 211.833,483.5 186.5,483.5C 186.665,487.182 186.499,490.848 186,494.5C 183.469,498.79 179.969,499.623 175.5,497C 174.874,496.25 174.374,495.416 174,494.5C 173.501,490.848 173.335,487.182 173.5,483.5C 148.167,483.5 122.833,483.5 97.5,483.5C 97.6655,487.514 97.4988,491.514 97,495.5C 92.601,499.654 88.601,499.321 85,494.5C 84.5014,490.848 84.3347,487.182 84.5,483.5C 61.788,483.823 39.1213,483.489 16.5,482.5C 15.1936,481.088 14.3603,479.421 14,477.5C 13.5,457.836 13.3334,438.169 13.5,418.5C 9.81826,418.665 6.15159,418.499 2.5,418C 1.30943,417.302 0.309426,416.469 -0.5,415.5 Z"/></g>
<g><path style="opacity:0.92" fill="#000000" d="M 414.5,123.5 C 421.187,123.861 424.52,127.528 424.5,134.5C 436.328,137.326 443.328,144.659 445.5,156.5C 444.962,162.863 441.628,165.029 435.5,163C 433.147,160.3 431.647,157.134 431,153.5C 429.261,151.259 427.094,149.592 424.5,148.5C 423.336,155.142 423.169,161.808 424,168.5C 442.528,173.892 448.528,185.558 442,203.5C 437.271,209.614 431.104,213.28 423.5,214.5C 423.649,217.607 423.149,220.607 422,223.5C 413.22,227.239 409.386,224.239 410.5,214.5C 397.639,212.64 389.973,205.307 387.5,192.5C 388.301,186.593 391.634,184.426 397.5,186C 399.964,188.644 401.464,191.81 402,195.5C 404.13,198.23 406.797,200.23 410,201.5C 410.5,194.508 410.666,187.508 410.5,180.5C 393.707,177.211 386.54,167.211 389,150.5C 393.429,141.581 400.595,136.248 410.5,134.5C 410.336,131.813 410.503,129.146 411,126.5C 412.145,125.364 413.312,124.364 414.5,123.5 Z M 409.5,147.5 C 397.396,154.34 397.563,161.006 410,167.5C 410.821,160.654 410.654,153.987 409.5,147.5 Z M 423.5,182.5 C 423.334,188.842 423.5,195.175 424,201.5C 435.464,194.707 435.297,188.374 423.5,182.5 Z"/></g>
<g><path style="opacity:0.917" fill="#000000" d="M 245.5,224.5 C 271.288,222.955 283.288,234.955 281.5,260.5C 302.833,273.5 324.167,286.5 345.5,299.5C 361.197,287.942 375.697,289.275 389,303.5C 397.614,320.136 394.447,333.969 379.5,345C 362.74,351.986 349.573,347.82 340,332.5C 339.333,330.5 338.667,328.5 338,326.5C 337.677,321.044 337.51,315.711 337.5,310.5C 316.668,297.249 295.668,284.249 274.5,271.5C 265.322,280.46 254.655,282.794 242.5,278.5C 225.784,298.922 209.784,319.922 194.5,341.5C 198.647,358.04 192.98,369.873 177.5,377C 161.915,381.143 150.082,376.309 142,362.5C 137.397,350.538 139.23,339.704 147.5,330C 134.833,316.667 122.167,303.333 109.5,290C 82.8214,293.765 69.9881,282.265 71,255.5C 76.8851,239.305 88.3851,232.471 105.5,235C 123.749,241.688 130.249,254.522 125,273.5C 123.561,276.603 121.727,279.436 119.5,282C 132.863,295.029 145.863,308.362 158.5,322C 168.629,320.634 177.963,322.801 186.5,328.5C 201.66,309.167 216.66,289.667 231.5,270C 222.367,258.371 222.2,246.538 231,234.5C 235.208,230.103 240.042,226.769 245.5,224.5 Z M 248.5,237.5 C 262.47,236.305 268.97,242.638 268,256.5C 263.158,267.228 255.324,270.061 244.5,265C 234.88,254.264 236.213,245.097 248.5,237.5 Z M 94.5,247.5 C 111.163,247.825 116.663,255.825 111,271.5C 104.749,278.011 97.5821,279.177 89.5,275C 81.8689,267.315 81.5356,259.315 88.5,251C 90.4319,249.541 92.4319,248.375 94.5,247.5 Z M 362.5,304.5 C 376.336,304.84 382.169,311.84 380,325.5C 372.216,337.408 363.216,338.408 353,328.5C 348.114,317.276 351.281,309.276 362.5,304.5 Z M 166.5,334.5 C 181.52,337.208 186.02,345.541 180,359.5C 173.055,366.556 165.555,367.223 157.5,361.5C 150.66,353.378 150.993,345.545 158.5,338C 161.158,336.522 163.825,335.355 166.5,334.5 Z"/></g>
</svg>
