<?xml version="1.0" encoding="UTF-8"?>
<!DOCTYPE svg PUBLIC "-//W3C//DTD SVG 1.1//EN" "http://www.w3.org/Graphics/SVG/1.1/DTD/svg11.dtd">
<svg xmlns="http://www.w3.org/2000/svg" version="1.1" width="512px" height="512px" style="shape-rendering:geometricPrecision; text-rendering:geometricPrecision; image-rendering:optimizeQuality; fill-rule:evenodd; clip-rule:evenodd" xmlns:xlink="http://www.w3.org/1999/xlink">
<g><path style="opacity:0.944" fill="#000000" d="M 511.5,351.5 C 511.5,358.167 511.5,364.833 511.5,371.5C 504.031,420.809 476.031,451.643 427.5,464C 376.278,470.637 337.778,451.804 312,407.5C 277.339,421.331 242.506,434.664 207.5,447.5C 139.409,421.624 71.4095,395.457 3.5,369C 1.92975,367.603 0.596413,366.103 -0.5,364.5C -0.5,285.833 -0.5,207.167 -0.5,128.5C 1.0969,125.179 3.76356,123.012 7.5,122C 71.9446,97.2773 136.278,72.2773 200.5,47C 204.072,45.5951 207.739,45.2617 211.5,46C 279.199,71.6871 346.532,98.1871 413.5,125.5C 414,126.5 414.5,127.5 415,128.5C 415.5,171.499 415.667,214.499 415.5,257.5C 470.324,265.658 502.324,296.992 511.5,351.5 Z M 206.5,62.5 C 220.812,67.9868 235.146,73.4868 249.5,79C 191.158,102.225 132.658,125.059 74,147.5C 59.7547,142.196 45.588,136.696 31.5,131C 90.1301,108.629 148.463,85.7958 206.5,62.5 Z M 272.5,88.5 C 287.245,93.702 301.911,99.202 316.5,105C 258.471,128.512 200.138,151.345 141.5,173.5C 127.055,168.296 112.721,162.796 98.5,157C 156.526,134.051 214.526,111.217 272.5,88.5 Z M 339.5,114.5 C 354.245,119.702 368.911,125.202 383.5,131C 324.873,153.931 266.206,176.765 207.5,199.5C 193.46,194.098 179.46,188.598 165.5,183C 223.718,160.433 281.718,137.6 339.5,114.5 Z M 16.5,143.5 C 32.4744,149.818 48.4744,156.151 64.5,162.5C 65.3331,182.825 65.8331,203.158 66,223.5C 68.5126,230.34 73.346,232.84 80.5,231C 88.4222,228.692 96.2556,226.192 104,223.5C 113.167,231.333 122.333,239.167 131.5,247C 138.479,251.102 144.313,249.935 149,243.5C 149.167,227.49 149.667,211.49 150.5,195.5C 166.5,201.833 182.5,208.167 198.5,214.5C 199.833,285.167 199.833,355.833 198.5,426.5C 137.944,402.927 77.4437,379.26 17,355.5C 16.5,284.834 16.3333,214.167 16.5,143.5 Z M 397.5,143.5 C 398.499,181.33 398.832,219.33 398.5,257.5C 347.154,264.346 315.654,293.012 304,343.5C 301.526,359.183 302.359,374.683 306.5,390C 306.167,390.5 305.833,391 305.5,391.5C 275.912,403.363 246.246,415.029 216.5,426.5C 215.167,355.833 215.167,285.167 216.5,214.5C 277.012,191.002 337.345,167.335 397.5,143.5 Z M 82.5,169.5 C 98.9234,175.543 115.257,181.876 131.5,188.5C 132.666,200.486 132.833,212.486 132,224.5C 124.454,217.952 116.621,211.785 108.5,206C 100.001,207.216 91.6677,209.383 83.5,212.5C 82.5007,198.182 82.1674,183.849 82.5,169.5 Z M 404.5,273.5 C 443.685,274.891 471.519,293.224 488,328.5C 501.633,368.257 492.8,402.091 461.5,430C 434.098,450.051 404.432,454.051 372.5,442C 331.291,420.415 314.458,386.581 322,340.5C 334.753,299.906 362.253,277.572 404.5,273.5 Z M 450.5,322.5 C 457.59,322.079 459.757,325.079 457,331.5C 434.167,354.333 411.333,377.167 388.5,400C 385.044,401.123 382.21,400.29 380,397.5C 370.333,385.167 360.667,372.833 351,360.5C 350.701,355.134 353.201,352.967 358.5,354C 366.212,362.71 373.545,371.71 380.5,381C 383.776,383.387 387.109,383.721 390.5,382C 411.006,362.66 431.006,342.827 450.5,322.5 Z"/></g>
<g><path style="opacity:0.931" fill="#000000" d="M 446.5,305.5 C 466.311,303.813 475.811,312.813 475,332.5C 474.241,335.785 472.908,338.785 471,341.5C 447.167,365.333 423.333,389.167 399.5,413C 390.737,418.59 381.737,418.923 372.5,414C 359.91,400.081 348.077,385.581 337,370.5C 330.73,356.522 334.23,345.689 347.5,338C 356.227,335.138 364.227,336.471 371.5,342C 376.667,348.5 381.833,355 387,361.5C 403.833,344.667 420.667,327.833 437.5,311C 440.564,309.141 443.564,307.308 446.5,305.5 Z M 450.5,322.5 C 431.006,342.827 411.006,362.66 390.5,382C 387.109,383.721 383.776,383.387 380.5,381C 373.545,371.71 366.212,362.71 358.5,354C 353.201,352.967 350.701,355.134 351,360.5C 360.667,372.833 370.333,385.167 380,397.5C 382.21,400.29 385.044,401.123 388.5,400C 411.333,377.167 434.167,354.333 457,331.5C 459.757,325.079 457.59,322.079 450.5,322.5 Z"/></g>
</svg>
