<?xml version="1.0" encoding="UTF-8"?>
<!DOCTYPE svg PUBLIC "-//W3C//DTD SVG 1.1//EN" "http://www.w3.org/Graphics/SVG/1.1/DTD/svg11.dtd">
<svg xmlns="http://www.w3.org/2000/svg" version="1.1" width="512px" height="512px" style="shape-rendering:geometricPrecision; text-rendering:geometricPrecision; image-rendering:optimizeQuality; fill-rule:evenodd; clip-rule:evenodd" xmlns:xlink="http://www.w3.org/1999/xlink">
<g><path style="opacity:0.972" fill="#000000" d="M 83.5,39.5 C 214.167,39.3333 344.834,39.5 475.5,40C 477.333,40.5 478.5,41.6667 479,43.5C 479.5,106.166 479.667,168.832 479.5,231.5C 474.167,231.5 468.833,231.5 463.5,231.5C 463.667,177.166 463.5,122.832 463,68.5C 447.333,84.1667 431.667,99.8333 416,115.5C 415.333,147.833 415.333,180.167 416,212.5C 472.785,243.05 499.118,290.717 495,355.5C 487.034,408.455 458.867,446.288 410.5,469C 385.389,479.353 359.555,482.186 333,477.5C 331,473.5 331,469.5 333,465.5C 333.75,464.874 334.584,464.374 335.5,464C 393.031,459.799 425.031,429.133 431.5,372C 431.058,353.734 425.891,336.901 416,321.5C 415.667,354.167 415.333,386.833 415,419.5C 414.5,421.333 413.333,422.5 411.5,423C 280.086,423.996 148.753,423.663 17.5,422C 16.8742,421.25 16.3742,420.416 16,419.5C 15.3333,315.5 15.3333,211.5 16,107.5C 38.0337,84.2999 60.5337,61.6332 83.5,39.5 Z M 91.5,55.5 C 139.168,55.3333 186.834,55.5 234.5,56C 218.833,71.6667 203.167,87.3333 187.5,103C 139.833,103.667 92.1667,103.667 44.5,103C 60.3685,87.2986 76.0351,71.4652 91.5,55.5 Z M 259.5,55.5 C 267.174,55.3336 274.841,55.5003 282.5,56C 265.304,72.8618 248.471,90.0284 232,107.5C 231.5,127.497 231.333,147.497 231.5,167.5C 220.833,167.5 210.167,167.5 199.5,167.5C 199.333,150.163 199.5,132.83 200,115.5C 220.035,95.6319 239.868,75.6319 259.5,55.5 Z M 307.5,55.5 C 355.168,55.3333 402.834,55.5 450.5,56C 434.833,71.6667 419.167,87.3333 403.5,103C 355.833,103.667 308.167,103.667 260.5,103C 276.368,87.2986 292.035,71.4652 307.5,55.5 Z M 31.5,119.5 C 82.1667,119.5 132.833,119.5 183.5,119.5C 183.333,139.503 183.5,159.503 184,179.5C 184.5,181.333 185.667,182.5 187.5,183C 206.167,183.667 224.833,183.667 243.5,183C 244.416,182.626 245.25,182.126 246,181.5C 247.477,160.925 247.977,140.259 247.5,119.5C 298.167,119.5 348.833,119.5 399.5,119.5C 399.5,148.167 399.5,176.833 399.5,205.5C 381.212,200.222 362.546,198.222 343.5,199.5C 343.667,184.83 343.5,170.163 343,155.5C 340.089,151.723 336.256,150.556 331.5,152C 293.5,179 255.5,206 217.5,233C 214.833,237.333 214.833,241.667 217.5,246C 255.5,273 293.5,300 331.5,327C 336.256,328.444 340.089,327.277 343,323.5C 343.5,309.171 343.667,294.837 343.5,280.5C 364.65,281.27 383.15,288.603 399,302.5C 399.5,337.498 399.667,372.498 399.5,407.5C 276.833,407.5 154.167,407.5 31.5,407.5C 31.5,311.5 31.5,215.5 31.5,119.5 Z M 421.5,443.5 C 451.098,405.08 455.598,363.747 435,319.5C 411.754,280.301 377.254,261.801 331.5,264C 329.667,264.5 328.5,265.667 328,267.5C 327.833,279.181 327.333,290.848 326.5,302.5C 297.167,281.5 267.833,260.5 238.5,239.5C 267.833,218.5 297.167,197.5 326.5,176.5C 327.333,188.152 327.833,199.819 328,211.5C 328.374,212.416 328.874,213.25 329.5,214C 347.186,214.977 364.852,216.643 382.5,219C 433.736,232.902 465.236,265.736 477,317.5C 484.364,371.09 465.864,413.09 421.5,443.5 Z"/></g>
<g><path style="opacity:1" fill="#000000" d="M 47.5,343.5 C 79.5,343.5 111.5,343.5 143.5,343.5C 143.5,348.833 143.5,354.167 143.5,359.5C 111.5,359.5 79.5,359.5 47.5,359.5C 47.5,354.167 47.5,348.833 47.5,343.5 Z"/></g>
<g><path style="opacity:1" fill="#000000" d="M 47.5,375.5 C 79.5,375.5 111.5,375.5 143.5,375.5C 143.5,380.833 143.5,386.167 143.5,391.5C 111.5,391.5 79.5,391.5 47.5,391.5C 47.5,386.167 47.5,380.833 47.5,375.5 Z"/></g>
</svg>
